/* XPM */
static char *_ac512c549674ebdb011d4b378949af4PNAl2OxzC5mzeg6F[] = {
/* columns rows colors chars-per-pixel */
"64 64 4 1 ",
"  c black",
". c #22B14C",
"X c #3F48CC",
"o c #C8BFE7",
/* pixels */
"XXXXXXXXXXXXXXXXXXXXXXXXXXX          XXXXXXXXXXXXXXXXXXXXXXXXXXX",
"XXXXXXXXXXXXXXXXXXXXXXX                  XXXXXXXXXXXXXXXXXXXXXXX",
"XXXXXXXXXXXXXXXXXXXX        ........        XXXXXXXXXXXXXXXXXXXX",
"XXXXXXXXXXXXXXXXXX      ................      XXXXXXXXXXXXXXXXXX",
"XXXXXXXXXXXXXXXX     ......................     XXXXXXXXXXXXXXXX",
"XXXXXXXXXXXXXX     ..........................     XXXXXXXXXXXXXX",
"XXXXXXXXXXXXX     ............................     XXXXXXXXXXXXX",
"XXXXXXXXXXXX    ............oooooooo............     XXXXXXXXXXX",
"XXXXXXXXXX     ..........oooooooooooooo..........     XXXXXXXXXX",
"XXXXXXXXX     .........ooooooooooooooooooo........     XXXXXXXXX",
"XXXXXXXX     ........oooooooooooooooooooooo........     XXXXXXXX",
"XXXXXXXX    .......oooooooooooooooooooooooooo.......     XXXXXXX",
"XXXXXXX    .......oooooooooooooooooooooooooooo.......    XXXXXXX",
"XXXXXX     ......oooooooooooooooooooooooooooooo......     XXXXXX",
"XXXXX     ......oooooooooooooooooooooooooooooooo......     XXXXX",
"XXXXX    ......oooooooooooooooooooooooooooooooooo......    XXXXX",
"XXXX     ......oooooooooooooooooooooooooooooooooo......     XXXX",
"XXXX    ......oooooooooooooooooooooooooooooooooooo......     XXX",
"XXX     .....oooooooooooooooooooooooooooooooooooooo.....     XXX",
"XX     ......oooooooooooooooooooooooooooooooooooooo......     XX",
"XX     .....oooooooooooooooooooooooooooooooooooooooo.....     XX",
"XX     .....oooooooooooooooooooooooooooooooooooooooo.....     XX",
"XX    ......oooooooooooooooooooooooooooooooooooooooo......     X",
"X     .....oooooooooooooooooooooooooooooooooooooooooo.....     X",
"X     .....oooooooooooooooooooooooooooooooooooooooooo.....     X",
"X     .....oooooooooooooooooooooooooooooooooooooooooo.....     X",
"X    .....oooooooooooooooooooooooooooooooooooooooooooo.....    X",
"     .....oooooooooooooooooooooooooooooooooooooooooooo.....     ",
"     .....oooooooooooooooooooooooooooooooooooooooooooo.....     ",
"     .....oooooooooooooooooooooooooooooooooooooooooooo.....     ",
"     .....oooooooooooooooooooooooooooooooooooooooooooo.....     ",
"     .....oooooooooooooooooooooooooooooooooooooooooooo.....     ",
"     .....oooooooooooooooooooooooooooooooooooooooooooo.....     ",
"     .....oooooooooooooooooooooooooooooooooooooooooooo.....     ",
"     .....oooooooooooooooooooooooooooooooooooooooooooo.....     ",
"     .....oooooooooooooooooooooooooooooooooooooooooooo.....     ",
"X     .....oooooooooooooooooooooooooooooooooooooooooo......     ",
"X     .....oooooooooooooooooooooooooooooooooooooooooo.....     X",
"X     .....oooooooooooooooooooooooooooooooooooooooooo.....     X",
"X     ......ooooooooooooooooooooooooooooooooooooooooo.....     X",
"X      .....oooooooooooooooooooooooooooooooooooooooo.....      X",
"XX     .....oooooooooooooooooooooooooooooooooooooooo.....     XX",
"XX     ......oooooooooooooooooooooooooooooooooooooo......     XX",
"XX      .....oooooooooooooooooooooooooooooooooooooo.....      XX",
"XXX     ......oooooooooooooooooooooooooooooooooooo......     XXX",
"XXX      ......oooooooooooooooooooooooooooooooooo......      XXX",
"XXXX     ......oooooooooooooooooooooooooooooooooo......     XXXX",
"XXXXX     ......oooooooooooooooooooooooooooooooo......     XXXXX",
"XXXXX      ......oooooooooooooooooooooooooooooo......      XXXXX",
"XXXXXX     .......oooooooooooooooooooooooooooo.......     XXXXXX",
"XXXXXXX     .......oooooooooooooooooooooooooo.......     XXXXXXX",
"XXXXXXX      ........oooooooooooooooooooooo........      XXXXXXX",
"XXXXXXXX      ........oooooooooooooooooooo........      XXXXXXXX",
"XXXXXXXXX      ..........oooooooooooooo..........      XXXXXXXXX",
"XXXXXXXXXX      ............oooooooo............      XXXXXXXXXX",
"XXXXXXXXXXXX      ............................       XXXXXXXXXXX",
"XXXXXXXXXXXXX      ..........................      XXXXXXXXXXXXX",
"XXXXXXXXXXXXXX       ......................       XXXXXXXXXXXXXX",
"XXXXXXXXXXXXXXXX        ................        XXXXXXXXXXXXXXXX",
"XXXXXXXXXXXXXXXXXX         ..........          XXXXXXXXXXXXXXXXX",
"XXXXXXXXXXXXXXXXXXX                          XXXXXXXXXXXXXXXXXXX",
"XXXXXXXXXXXXXXXXXXXXXXX                   XXXXXXXXXXXXXXXXXXXXXX",
"XXXXXXXXXXXXXXXXXXXXXXXXXXX           XXXXXXXXXXXXXXXXXXXXXXXXXX",
"XXXXXXXXXXXXXXXXXXXXXXXXXXXXXXXXXXXXXXXXXXXXXXXXXXXXXXXXXXXXXXXX"
};
